#!OML:ASF E:\Steps\Project 1\Capture day 1\Session 2\Subject.ASF
:FULLY-SPECIFIED
:DEGREES
347
root 9.99026 16.0968 9.58988 -155.801 0.415381 -182.483
lowerback -10.2595 -2.00896 -4.72979
upperback 0.0980737 -2.16172 -0.157797
thorax 6.03571 -1.22865 2.16068
lowerneck 0.24649 -1.55833 0.04102
upperneck -1.42538 -2.02771 2.35826
head -0.448171 -1.01857 0.718531
rclavicle 1.20265e-014 6.16232e-015
rhumerus -67.7208 4.75832 -82.0725
rradius 48.9548
rwrist -7.29296
rhand -5.08909 -52.6717
rfingers 7.12502
rthumb 20.7078 -81.5869
lclavicle 1.20265e-014 6.16232e-015
lhumerus -69.153 -20.1474 91.6118
lradius 53.8707
lwrist 9.05977
lhand -32.3394 -19.3662
lfingers 7.12502
lthumb -5.57647 10.5404
rfemur -59.262 4.15131 7.70199
rtibia 18.8106
rfoot 13.7339 -16.7546
rtoes -30.7816
lfemur -59.1564 -4.24332 -14.0054
ltibia 17.9538
lfoot 27.5664 17.2932
ltoes -42.7966
348
root 10.005 15.7736 9.30805 -156.458 0.496561 -182.505
lowerback -10.0705 -1.92317 -4.84292
upperback 0.390264 -2.02385 -0.17091
thorax 6.23245 -1.16789 2.23256
lowerneck -0.387144 -1.99147 -0.0648568
upperneck -0.859787 -2.63018 2.0983
head -0.166982 -1.31324 0.645612
rclavicle 9.34288e-015 1.98785e-015
rhumerus -67.0508 3.29202 -81.5063
rradius 47.5788
rwrist -7.51089
rhand -4.97686 -52.7671
rfingers 7.12502
rthumb 20.8156 -81.6705
lclavicle 9.34288e-015 1.98785e-015
lhumerus -68.6512 -19.2957 91.3228
lradius 53.1521
lwrist 8.77611
lhand -32.6562 -19.6765
lfingers 7.12502
lthumb -5.88232 10.2219
rfemur -60.6725 2.91214 9.45378
rtibia 23.7755
rfoot 13.9709 -14.6084
rtoes -23.6293
lfemur -60.3813 -2.91839 -15.8568
ltibia 23.0607
lfoot 28.4135 14.6819
ltoes -39.214
349
root 10.0216 15.4371 9.02889 -157.139 0.569403 -182.435
lowerback -9.85106 -1.89603 -4.82974
upperback 0.392214 -1.89494 -0.209666
thorax 6.10203 -1.05697 2.21508
lowerneck -0.682784 -1.739 0.0916069
upperneck -0.960919 -2.2894 2.07938
head -0.155189 -1.14035 0.611771
rclavicle 4.37326e-015 9.93923e-016
rhumerus -66.8232 1.85934 -81.0419
rradius 46.2601
rwrist -7.30222
rhand -4.85258 -52.8335
rfingers 7.12502
rthumb 20.9351 -81.7238
lclavicle 4.37326e-015 9.93923e-016
lhumerus -68.6635 -18.5102 91.1255
lradius 52.5162
lwrist 8.60455
lhand -32.9062 -19.8688
lfingers 7.12502
lthumb -6.12368 10.0227
rfemur -62.4014 1.0018 12.4395
rtibia 30.2636
rfoot 10.9862 -9.15023
rtoes -29.7134
lfemur -62.0674 -0.963189 -18.7166
ltibia 30.1265
lfoot 20.9938 6.34494
ltoes -49.8915
350
root 10.0368 15.0878 8.75512 -158.131 0.59745 -182.422
lowerback -9.30978 -1.83771 -4.80292
upperback 0.296242 -1.84612 -0.318748
thorax 5.686 -1.02023 2.10866
lowerneck -0.0605326 -2.42568 0.237353
upperneck 0.482835 -3.2367 1.57354
head 0.178262 -1.61242 0.429439
rclavicle -1.93815e-014 -3.35946e-014
rhumerus -66.7021 0.413809 -80.6119
rradius 44.8382
rwrist -6.87467
rhand -5.07323 -52.4797
rfingers 7.12502
rthumb 20.7231 -81.3933
lclavicle -1.93815e-014 -3.35946e-014
lhumerus -68.7673 -17.6696 90.8769
lradius 51.6365
lwrist 8.44954
lhand -33.4342 -19.6174
lfingers 7.12502
lthumb -6.63339 10.2587
rfemur -64.1125 0.559996 14.0621
rtibia 37.8739
rfoot -0.244446 -3.54099
rtoes -38.3327
lfemur -63.7116 -0.117577 -20.2898
ltibia 37.7895
lfoot 11.3846 2.38005
ltoes -38.7455
351
root 10.0532 14.7345 8.49044 -159.621 0.544756 -182.464
lowerback -8.18043 -1.79192 -4.82759
upperback 0.360652 -1.84659 -0.4391
thorax 5.11246 -1.01268 2.02459
lowerneck -0.219188 -1.99611 0.211032
upperneck 0.673633 -2.66525 1.86499
head 0.262497 -1.32191 0.520783
rclavicle 1.68967e-015 1.33186e-014
rhumerus -66.1846 -1.31729 -79.9558
rradius 43.1577
rwrist -6.15274
rhand -5.97568 -52.1708
rfingers 7.12502
rthumb 19.8557 -81.1765
lclavicle 1.68967e-015 1.33186e-014
lhumerus -68.3442 -16.733 90.4585
lradius 50.3923
lwrist 8.19324
lhand -33.7205 -18.9949
lfingers 7.12502
lthumb -6.90976 10.8723
rfemur -65.2609 0.339005 15.4448
rtibia 45.7902
rfoot -9.14054 -3.6534
rtoes -40.2656
lfemur -65.0109 -0.045155 -21.1131
ltibia 45.9976
lfoot 5.79707 2.42754
ltoes -35.2015
352
root 10.0735 14.3845 8.24468 -161.376 0.397404 -182.348
lowerback -6.66626 -1.71987 -4.79173
upperback 0.61549 -1.84739 -0.465015
thorax 4.52167 -1.01109 2.01248
lowerneck -0.693512 -1.78816 0.101358
upperneck 1.24993 -2.39932 2.10585
head 0.51846 -1.17907 0.606815
rclavicle -1.68967e-014 -1.98785e-015
rhumerus -65.3151 -3.03218 -79.361
rradius 41.6488
rwrist -5.4136
rhand -6.91178 -52.31
rfingers 7.12502
rthumb 18.9557 -81.4064
lclavicle -1.68967e-014 -1.98785e-015
lhumerus -67.2419 -15.7683 89.9161
lradius 48.9989
lwrist 7.97776
lhand -33.866 -18.2314
lfingers 7.12502
lthumb -7.05024 11.6311
rfemur -65.9568 1.39756 15.388
rtibia 52.1403
rfoot -12.1442 -5.81909
rtoes -34.5302
lfemur -66.1668 -0.368739 -21.1075
ltibia 53.1894
lfoot 0.936021 3.95153
ltoes -40.3784
353
root 10.0982 14.0353 8.00902 -163.171 0.341771 -181.957
lowerback -5.22965 -1.5856 -4.57938
upperback 0.983639 -1.76928 -0.406747
thorax 4.08252 -0.971139 1.99272
lowerneck -1.24135 -1.68094 -0.0637715
upperneck 2.33263 -2.2753 2.40505
head 0.949898 -1.09848 0.720649
rclavicle 3.37934e-015 -1.15295e-014
rhumerus -64.0137 -4.69005 -78.9446
rradius 39.9893
rwrist -4.76555
rhand -7.83255 -52.6452
rfingers 7.12502
rthumb 18.07 -81.8258
lclavicle 3.37934e-015 -1.15295e-014
lhumerus -65.6218 -14.8195 89.2711
lradius 47.4674
lwrist 8.03241
lhand -34.2061 -18.1597
lfingers 7.12502
lthumb -7.3785 11.6916
rfemur -66.7061 2.83622 15.4768
rtibia 58.4276
rfoot -15.4385 -7.22819
rtoes -27.6274
lfemur -67.4025 -0.600068 -20.661
ltibia 60.3257
lfoot -2.69647 4.8845
ltoes -40.9114
354
root 10.1269 13.7087 7.76818 -165.459 0.173405 -181.538
lowerback -3.54049 -1.48366 -4.4029
upperback 1.5144 -1.77433 -0.277801
thorax 3.67638 -0.992965 2.06003
lowerneck -1.58248 -1.51022 -0.318559
upperneck 3.53883 -2.06231 2.78128
head 1.39411 -0.967661 0.881324
rclavicle -4.96962e-015 -3.57812e-015
rhumerus -62.2235 -6.4951 -78.3384
rradius 37.685
rwrist -3.79412
rhand -9.16144 -52.9421
rfingers 7.12502
rthumb 16.791 -82.2361
lclavicle -4.96962e-015 -3.57812e-015
lhumerus -63.6859 -13.8219 88.6836
lradius 45.7619
lwrist 8.47646
lhand -34.7979 -18.3716
lfingers 7.12502
lthumb -7.94967 11.4589
rfemur -66.7248 4.01709 16.1892
rtibia 64.2581
rfoot -19.2252 -8.53827
rtoes -32.989
lfemur -67.8282 -1.12785 -19.9227
ltibia 66.4165
lfoot -5.38716 5.28537
ltoes -38.6922
355
root 10.1489 13.406 7.53239 -167.34 0.157204 -181.118
lowerback -2.37716 -1.43889 -4.2103
upperback 1.90444 -1.72355 -0.106672
thorax 3.42054 -0.944343 2.15653
lowerneck -1.78341 -1.23913 -0.562633
upperneck 4.48206 -1.70827 3.14681
head 1.73323 -0.767188 1.04619
rclavicle -7.05686e-015 -3.18055e-015
rhumerus -60.1625 -8.4474 -77.5164
rradius 35.1142
rwrist -2.50001
rhand -10.2991 -53.9118
rfingers 7.12502
rthumb 15.6956 -83.2952
lclavicle -7.05686e-015 -3.18055e-015
lhumerus -61.4771 -12.9329 88.3271
lradius 43.7446
lwrist 9.18276
lhand -35.4203 -18.1953
lfingers 7.12502
lthumb -8.55037 11.6116
rfemur -66.8602 5.13782 16.7829
rtibia 69.2656
rfoot -21.93 -9.6336
rtoes -34.4094
lfemur -68.4415 -1.54616 -19.2557
ltibia 72.0204
lfoot -7.80083 5.61776
ltoes -37.3747
356
root 10.1592 13.1363 7.29663 -168.82 -0.0242757 -180.844
lowerback -1.7194 -1.35574 -3.9223
upperback 2.25155 -1.72409 -0.0349119
thorax 3.39894 -0.975188 2.07847
lowerneck -1.51439 -1.90291 -0.763289
upperneck 6.80622 -2.56411 3.07731
head 2.46553 -1.14538 1.04662
rclavicle -1.2921e-015 -1.68967e-014
rhumerus -57.7477 -10.7005 -76.6746
rradius 32.4163
rwrist -1.20634
rhand -10.6808 -55.42
rfingers 7.12502
rthumb 15.328 -84.832
lclavicle -1.2921e-015 -1.68967e-014
lhumerus -58.8968 -12.358 87.9695
lradius 41.5483
lwrist 9.80603
lhand -35.5034 -17.7441
lfingers 7.12502
lthumb -8.63061 12.0595
rfemur -67.1387 5.80016 17.196
rtibia 73.993
rfoot -24.4666 -10.3507
rtoes -34.0462
lfemur -69.0321 -2.17874 -18.8352
ltibia 76.7381
lfoot -9.68668 6.10782
ltoes -38.067
